<svg width="42" height="47" viewBox="0 0 42 47" fill="none" xmlns="http://www.w3.org/2000/svg">
<path d="M16.7723 1.16116C19.3901 -0.387056 22.6099 -0.387055 25.2277 1.16117L37.7407 8.56143C40.3755 10.1197 42 13.0091 42 16.1373V30.8627C42 33.9909 40.3755 36.8803 37.7407 38.4386L25.2277 45.8388C22.6099 47.3871 19.3901 47.3871 16.7723 45.8388L4.25933 38.4386C1.62453 36.8803 0 33.9909 0 30.8627V16.1373C0 13.0091 1.62453 10.1197 4.25934 8.56143L16.7723 1.16116Z" fill="#6735EA"/>
<path d="M19.0453 32.4621C18.021 32.4621 17.1002 32.2704 16.2829 31.887C15.4759 31.4929 14.8396 30.9337 14.374 30.2095C13.9188 29.4746 13.6912 28.5852 13.6912 27.5414C13.6912 25.7201 14.3275 24.3462 15.6 23.4196C16.883 22.4929 18.9263 22.0083 21.7301 21.9657L24.1201 21.9018V20.7835C24.1201 19.9101 23.8666 19.2285 23.3596 18.7385C22.863 18.2379 22.0871 17.993 21.0318 18.0036C20.2558 18.0143 19.5419 18.206 18.8901 18.5788C18.2487 18.9409 17.8245 19.5533 17.6175 20.416H14.4051C14.4671 19.287 14.7827 18.3444 15.3517 17.5882C15.9311 16.8214 16.7226 16.2515 17.7262 15.8788C18.7297 15.4953 19.8885 15.3036 21.2025 15.3036C22.7337 15.3036 23.9804 15.5113 24.9426 15.9267C25.9048 16.3421 26.6135 16.9438 27.0687 17.732C27.5239 18.5095 27.7516 19.4521 27.7516 20.5598V32.1426H24.5701L24.2753 29.171C23.6959 30.4172 22.9613 31.2799 22.0715 31.7592C21.1921 32.2278 20.1834 32.4621 19.0453 32.4621ZM20.2713 29.826C20.7369 29.826 21.1973 29.7408 21.6525 29.5704C22.1078 29.3894 22.5216 29.1497 22.8941 28.8515C23.2665 28.5426 23.5614 28.2018 23.7787 27.829C24.0063 27.4562 24.1201 27.0675 24.1201 26.6627V24.0586L22.1491 24.0906C21.1766 24.1012 20.3282 24.2077 19.604 24.4101C18.8798 24.6125 18.3107 24.9373 17.8969 25.3846C17.4934 25.8213 17.2916 26.4071 17.2916 27.142C17.2916 27.9834 17.5762 28.6438 18.1452 29.1231C18.7142 29.5917 19.4229 29.826 20.2713 29.826Z" fill="white"/>
</svg>
